<svg xmlns="http://www.w3.org/2000/svg" width="1440" height="900" viewBox="0 0 1440 900">
  <defs>
    <linearGradient id="g" x1="0%" y1="0%" x2="0%" y2="100%">
      <stop offset="0%" style="stop-color:#14532d;stop-opacity:1" />
      <stop offset="100%" style="stop-color:#0a2412;stop-opacity:1" />
    </linearGradient>
  </defs>
  <rect width="1440" height="900" fill="url(#g)"/>
  <path d="M0 500 L200 350 L400 420 L600 280 L800 350 L1000 250 L1200 300 L1440 200 L1440 900 L0 900 Z" fill="#166534" opacity="0.6"/>
  <path d="M0 600 L300 480 L500 550 L700 400 L900 480 L1100 380 L1300 450 L1440 380 L1440 900 L0 900 Z" fill="#15803d" opacity="0.4"/>
  <path d="M0 700 L250 620 L450 680 L650 550 L850 620 L1050 520 L1250 580 L1440 520 L1440 900 L0 900 Z" fill="#4ade80" opacity="0.15"/>
  <circle cx="200" cy="150" r="40" fill="#ffffff" opacity="0.1"/>
  <circle cx="500" cy="80" r="25" fill="#ffffff" opacity="0.08"/>
  <circle cx="800" cy="120" r="35" fill="#ffffff" opacity="0.1"/>
  <circle cx="1100" cy="60" r="20" fill="#ffffff" opacity="0.08"/>
  <circle cx="1300" cy="160" r="30" fill="#ffffff" opacity="0.06"/>
</svg>
